<?xml version="1.0" encoding="utf-8"?>
<!-- Generator: Adobe Illustrator 16.0.0, SVG Export Plug-In . SVG Version: 6.00 Build 0)  -->
<!DOCTYPE svg PUBLIC "-//W3C//DTD SVG 1.1//EN" "http://www.w3.org/Graphics/SVG/1.1/DTD/svg11.dtd">
<svg version="1.1" id="Layer_1" xmlns="http://www.w3.org/2000/svg" xmlns:xlink="http://www.w3.org/1999/xlink" x="0px" y="0px"
	 width="258px" height="258px" viewBox="0 0 258 258" enable-background="new 0 0 258 258" xml:space="preserve">
<g>
	<path fill="#FFFFFF" stroke="#FFFFFF" stroke-miterlimit="10" d="M34.215,58.105V6.566h10.406v22.887L65.645,6.566h13.992
		L60.23,26.641l20.461,31.465H67.227L53.059,33.918l-8.438,8.613v15.574H34.215z"/>
	<path fill="#FFFFFF" stroke="#FFFFFF" stroke-miterlimit="10" d="M86.211,58.105V6.566h10.406v22.887l21.023-22.887h13.992
		l-19.406,20.074l20.461,31.465h-13.465l-14.168-24.188l-8.438,8.613v15.574H86.211z"/>
	<path fill="#FFFFFF" stroke="#FFFFFF" stroke-miterlimit="10" d="M171.043,39.156l10.09,3.199
		c-1.547,5.625-4.119,9.803-7.717,12.533c-3.598,2.73-8.162,4.096-13.693,4.096c-6.844,0-12.469-2.338-16.875-7.014
		c-4.407-4.676-6.609-11.068-6.609-19.178c0-8.578,2.215-15.24,6.645-19.986s10.253-7.119,17.473-7.119
		c6.305,0,11.426,1.863,15.363,5.59c2.343,2.203,4.101,5.367,5.273,9.492l-10.301,2.461c-0.61-2.672-1.881-4.781-3.814-6.328
		s-4.284-2.32-7.049-2.32c-3.82,0-6.92,1.371-9.299,4.113c-2.379,2.742-3.568,7.184-3.568,13.324c0,6.516,1.172,11.157,3.516,13.922
		c2.343,2.766,5.391,4.148,9.141,4.148c2.765,0,5.145-0.879,7.137-2.637C168.746,45.695,170.176,42.93,171.043,39.156z"/>
	<path fill="#FFFFFF" stroke="#FFFFFF" stroke-miterlimit="10" d="M90.078,144.505V92.966h21.902c5.507,0,9.51,0.463,12.006,1.389
		c2.496,0.926,4.494,2.572,5.994,4.939c1.5,2.368,2.25,5.075,2.25,8.121c0,3.867-1.137,7.061-3.41,9.58
		c-2.273,2.52-5.672,4.108-10.195,4.764c2.25,1.313,4.107,2.754,5.572,4.324c1.464,1.57,3.439,4.359,5.924,8.367l6.293,10.055
		h-12.445l-7.523-11.215c-2.672-4.008-4.5-6.533-5.484-7.576c-0.984-1.042-2.027-1.758-3.129-2.145
		c-1.102-0.387-2.848-0.58-5.238-0.58h-2.109v21.516H90.078z M100.484,114.763h7.699c4.992,0,8.109-0.211,9.352-0.633
		c1.242-0.422,2.215-1.148,2.918-2.18c0.703-1.031,1.055-2.32,1.055-3.867c0-1.734-0.463-3.134-1.389-4.201
		c-0.926-1.066-2.232-1.74-3.92-2.021c-0.844-0.117-3.375-0.176-7.594-0.176h-8.121V114.763z"/>
	<path fill="#FFFFFF" stroke="#FFFFFF" stroke-miterlimit="10" d="M142.039,144.505V92.966h38.215v8.719h-27.809v11.426h25.875
		v8.684h-25.875v14.027h28.793v8.684H142.039z"/>
	<path fill="#FFFFFF" stroke="#FFFFFF" stroke-miterlimit="10" d="M42.02,230.905v-51.539h16.699c6.328,0,10.453,0.259,12.375,0.773
		c2.953,0.773,5.426,2.456,7.418,5.045c1.992,2.59,2.988,5.937,2.988,10.037c0,3.164-0.575,5.824-1.723,7.98
		c-1.148,2.157-2.607,3.85-4.377,5.08c-1.77,1.23-3.568,2.045-5.396,2.443c-2.484,0.492-6.082,0.738-10.793,0.738h-6.785v19.441
		H42.02z M52.426,188.085v14.625h5.695c4.101,0,6.843-0.269,8.227-0.809c1.383-0.539,2.466-1.383,3.252-2.531
		c0.785-1.147,1.178-2.483,1.178-4.008c0-1.875-0.551-3.422-1.652-4.641c-1.102-1.218-2.496-1.98-4.184-2.285
		c-1.243-0.233-3.739-0.352-7.488-0.352H52.426z"/>
	<path fill="#FFFFFF" stroke="#FFFFFF" stroke-miterlimit="10" d="M90.078,230.905v-51.539h21.902c5.507,0,9.51,0.463,12.006,1.389
		c2.496,0.927,4.494,2.572,5.994,4.939c1.5,2.368,2.25,5.075,2.25,8.121c0,3.867-1.137,7.062-3.41,9.58
		c-2.273,2.52-5.672,4.108-10.195,4.764c2.25,1.313,4.107,2.755,5.572,4.324c1.464,1.57,3.439,4.359,5.924,8.367l6.293,10.055
		h-12.445l-7.523-11.215c-2.672-4.008-4.5-6.533-5.484-7.576c-0.984-1.042-2.027-1.758-3.129-2.145
		c-1.102-0.387-2.848-0.58-5.238-0.58h-2.109v21.516H90.078z M100.484,201.163h7.699c4.992,0,8.109-0.211,9.352-0.633
		c1.242-0.422,2.215-1.147,2.918-2.18c0.703-1.031,1.055-2.32,1.055-3.867c0-1.734-0.463-3.134-1.389-4.201
		c-0.926-1.066-2.232-1.74-3.92-2.021c-0.844-0.117-3.375-0.176-7.594-0.176h-8.121V201.163z"/>
	<path fill="#FFFFFF" stroke="#FFFFFF" stroke-miterlimit="10" d="M142.039,230.905v-51.539h38.215v8.719h-27.809v11.426h25.875
		v8.684h-25.875v14.027h28.793v8.684H142.039z"/>
</g>
<text transform="matrix(0 1 -1 0 181.2383 4.1108)" fill="#FFFFFF" stroke="#FFFFFF" stroke-miterlimit="10" font-family="'Arial-BoldMT'" font-size="72">ITY</text>
<text transform="matrix(0 1 -1 0 181.2383 118.4756)" fill="#FFFFFF" stroke="#FFFFFF" stroke-miterlimit="10" font-family="'Arial-BoldMT'" font-size="72">VIE</text>
<polyline fill="#FFFFFF" stroke="#FFFFFF" stroke-width="4" stroke-miterlimit="10" points="83.5,4 250.5,4 250.5,208 "/>
<polyline fill="#FFFFFF" stroke="#FFFFFF" stroke-width="4" stroke-miterlimit="10" points="179.5,256 11.5,256 11.5,70 "/>
</svg>
